<?xml version="1.0" encoding="utf-8"?>
<!-- Generator: Adobe Illustrator 28.1.0, SVG Export Plug-In . SVG Version: 6.00 Build 0)  -->
<svg version="1.1" id="Layer_1" xmlns="http://www.w3.org/2000/svg" xmlns:xlink="http://www.w3.org/1999/xlink" x="0px" y="0px"
	 viewBox="0 0 267 82" style="enable-background:new 0 0 267 82;" xml:space="preserve">
<style type="text/css">
	.st0{clip-path:url(#SVGID_00000039854025978111657340000004774860687024488080_);fill:#F5AC43;}
	.st1{clip-path:url(#SVGID_00000039854025978111657340000004774860687024488080_);fill:#E8E8E8;}
</style>
<g>
	<defs>
		<rect id="SVGID_1_" x="15.69" y="20.26" width="235.62" height="41.47"/>
	</defs>
	<clipPath id="SVGID_00000003085089681810173200000000986467999693673361_">
		<use xlink:href="#SVGID_1_"  style="overflow:visible;"/>
	</clipPath>
	<path style="clip-path:url(#SVGID_00000003085089681810173200000000986467999693673361_);fill:#F5AC43;" d="M246.31,53.86
		c1.43,0,2.62-0.47,3.57-1.42c0.95-0.95,1.43-2.15,1.43-3.6c0-1.48-0.47-2.68-1.4-3.6c-0.93-0.92-2.13-1.38-3.6-1.38
		c-1.43,0-2.62,0.46-3.58,1.38c-0.95,0.92-1.42,2.12-1.42,3.6c0,1.45,0.48,2.65,1.45,3.6C243.72,53.39,244.91,53.86,246.31,53.86"/>
	<path style="clip-path:url(#SVGID_00000003085089681810173200000000986467999693673361_);fill:#E8E8E8;" d="M81,39.64
		c0.22-1.2,0.75-2.16,1.58-2.86c0.83-0.7,1.85-1.05,3.09-1.05s2.26,0.35,3.09,1.05c0.83,0.7,1.35,1.65,1.58,2.86H81z M91.79,31.47
		c-1.85-0.94-3.91-1.41-6.17-1.41c-2.38,0-4.52,0.5-6.43,1.51c-1.9,1.01-3.39,2.4-4.47,4.18c-1.08,1.78-1.62,3.79-1.62,6.03
		c0,2.27,0.55,4.3,1.66,6.09c1.11,1.79,2.67,3.19,4.68,4.2s4.35,1.51,7.01,1.51c4.26,0,7.49-1.23,9.7-3.7l-4.2-4.37
		c-0.81,0.7-1.62,1.2-2.42,1.51c-0.8,0.31-1.74,0.46-2.83,0.46c-1.46,0-2.67-0.31-3.63-0.94c-0.97-0.63-1.62-1.53-1.95-2.71h16.55
		c0.08-1.26,0.13-1.92,0.13-1.97c0-2.44-0.54-4.54-1.62-6.32C95.1,33.77,93.64,32.41,91.79,31.47"/>
	<path style="clip-path:url(#SVGID_00000003085089681810173200000000986467999693673361_);fill:#E8E8E8;" d="M59.33,45.8
		c-0.9,0.97-2.04,1.45-3.44,1.45s-2.55-0.48-3.44-1.45s-1.34-2.3-1.34-4.01c0-1.68,0.45-3,1.34-3.95s2.04-1.43,3.44-1.43
		s2.55,0.48,3.44,1.43s1.34,2.27,1.34,3.95C60.67,43.49,60.22,44.83,59.33,45.8 M62.52,31.56c-1.96-0.99-4.17-1.49-6.64-1.49
		s-4.67,0.5-6.62,1.49c-1.95,0.99-3.47,2.39-4.58,4.18c-1.11,1.79-1.66,3.81-1.66,6.05c0,2.27,0.55,4.3,1.66,6.09
		c1.11,1.79,2.64,3.19,4.6,4.2c1.96,1.01,4.16,1.51,6.59,1.51c2.46,0,4.68-0.5,6.64-1.51c1.96-1.01,3.49-2.41,4.58-4.2
		c1.09-1.79,1.64-3.82,1.64-6.09c0-2.27-0.55-4.29-1.64-6.07C66.01,33.94,64.48,32.55,62.52,31.56"/>
	<path style="clip-path:url(#SVGID_00000003085089681810173200000000986467999693673361_);fill:#E8E8E8;" d="M28.71,36.41
		c1.99,0,3.5,1.02,4.54,3.07l6.17-3.15c-0.78-1.96-2.11-3.49-3.99-4.6s-4.1-1.66-6.68-1.66c-2.52,0-4.77,0.5-6.76,1.49
		c-1.99,0.99-3.54,2.38-4.64,4.16s-1.66,3.8-1.66,6.07s0.55,4.3,1.66,6.09s2.65,3.19,4.64,4.2c1.99,1.01,4.24,1.51,6.76,1.51
		c2.58,0,4.8-0.55,6.68-1.66s3.21-2.64,3.99-4.6l-6.17-3.15c-1.04,2.04-2.55,3.07-4.54,3.07c-1.43,0-2.61-0.48-3.55-1.45
		s-1.41-2.3-1.41-4.01c0-1.68,0.47-3,1.41-3.95C26.1,36.89,27.28,36.41,28.71,36.41"/>
	<path style="clip-path:url(#SVGID_00000003085089681810173200000000986467999693673361_);fill:#E8E8E8;" d="M171.32,33.85
		c-1.58,0-3.02-0.26-4.34-0.78v20.13h7.98V33.33C173.83,33.67,172.62,33.85,171.32,33.85"/>
	<path style="clip-path:url(#SVGID_00000003085089681810173200000000986467999693673361_);fill:#E8E8E8;" d="M197.04,30.07
		c-1.46,0-2.8,0.25-4.03,0.74c-1.23,0.49-2.3,1.2-3.19,2.12v-2.48h-7.6v22.76h7.98v-11c0-1.79,0.41-3.14,1.24-4.03
		c0.83-0.9,1.93-1.34,3.3-1.34c2.49,0,3.74,1.55,3.74,4.66v11.72h7.98V40.19c0-3.39-0.86-5.92-2.58-7.6S199.87,30.07,197.04,30.07"
		/>
	<path style="clip-path:url(#SVGID_00000003085089681810173200000000986467999693673361_);fill:#E8E8E8;" d="M118.42,30.07
		c-1.46,0-2.8,0.25-4.03,0.74c-1.23,0.49-2.3,1.2-3.19,2.12v-2.48h-7.6v22.76h7.98v-11c0-1.79,0.41-3.14,1.24-4.03
		c0.83-0.9,1.92-1.34,3.3-1.34c2.49,0,3.74,1.55,3.74,4.66v11.72h7.98V40.19c0-3.39-0.86-5.92-2.58-7.6S121.25,30.07,118.42,30.07"
		/>
	<path style="clip-path:url(#SVGID_00000003085089681810173200000000986467999693673361_);fill:#E8E8E8;" d="M220.35,39.64
		c0.22-1.2,0.75-2.16,1.57-2.86c0.82-0.7,1.85-1.05,3.09-1.05c1.23,0,2.26,0.35,3.09,1.05c0.82,0.7,1.35,1.65,1.57,2.86H220.35z
		 M237.15,41.87c0-2.44-0.54-4.54-1.62-6.32c-1.08-1.78-2.54-3.14-4.39-4.07c-1.85-0.94-3.91-1.41-6.17-1.41
		c-2.38,0-4.52,0.5-6.43,1.51c-1.9,1.01-3.4,2.4-4.47,4.18c-1.08,1.78-1.62,3.79-1.62,6.03c0,2.27,0.55,4.3,1.66,6.09
		c1.11,1.79,2.67,3.19,4.68,4.2c2.02,1.01,4.35,1.51,7.01,1.51c4.26,0,7.49-1.23,9.7-3.7l-4.2-4.37c-0.81,0.7-1.62,1.2-2.41,1.51
		c-0.8,0.31-1.74,0.46-2.84,0.46c-1.46,0-2.67-0.31-3.63-0.94s-1.62-1.53-1.95-2.71h16.55C237.11,42.58,237.15,41.93,237.15,41.87"
		/>
	<path style="clip-path:url(#SVGID_00000003085089681810173200000000986467999693673361_);fill:#E8E8E8;" d="M150.45,44.39
		c-0.94,0.87-2.12,1.3-3.55,1.3c-1.43,0-2.62-0.43-3.57-1.3c-0.95-0.87-1.43-1.99-1.43-3.36c0-1.37,0.47-2.49,1.41-3.34
		s2.13-1.28,3.59-1.28c1.46,0,2.65,0.43,3.57,1.28s1.39,1.97,1.39,3.34C151.85,42.4,151.38,43.52,150.45,44.39 M152.15,33.22
		c-1.51-2.1-3.89-3.15-7.14-3.15c-2.02,0-3.88,0.45-5.59,1.36c-1.71,0.91-3.07,2.2-4.07,3.86s-1.51,3.58-1.51,5.73
		c0,2.18,0.5,4.11,1.51,5.77s2.37,2.95,4.07,3.86c1.71,0.91,3.57,1.36,5.59,1.36c2.97,0,5.22-0.9,6.76-2.69v0.76
		c0,1.82-0.49,3.19-1.47,4.12c-0.98,0.92-2.52,1.39-4.62,1.39c-1.37,0-2.76-0.22-4.18-0.65c-1.41-0.43-2.58-1.03-3.51-1.78
		l-2.9,5.59c1.37,0.98,3.04,1.72,5,2.23c1.96,0.5,4.06,0.76,6.3,0.76c4.31,0,7.62-1.06,9.91-3.17c2.3-2.11,3.44-5.28,3.44-9.51
		V30.45h-7.6V33.22z"/>
	<path style="clip-path:url(#SVGID_00000003085089681810173200000000986467999693673361_);fill:#F5AC43;" d="M171.32,30.26
		c1.43,0,2.62-0.47,3.57-1.42c0.95-0.95,1.43-2.15,1.43-3.6c0-1.48-0.47-2.68-1.4-3.6c-0.94-0.92-2.13-1.38-3.6-1.38
		c-1.43,0-2.62,0.46-3.58,1.38c-0.95,0.92-1.42,2.12-1.42,3.6c0,1.45,0.48,2.65,1.45,3.6C168.73,29.79,169.91,30.26,171.32,30.26"/>
</g>
</svg>
